<?xml version="1.0" encoding="utf-8"?>
<!-- Generator: Adobe Illustrator 23.0.1, SVG Export Plug-In . SVG Version: 6.00 Build 0)  -->
<svg version="1.1" id="Calque_1" xmlns="http://www.w3.org/2000/svg" xmlns:xlink="http://www.w3.org/1999/xlink" x="0px" y="0px"
	 viewBox="0 0 221 250" style="enable-background:new 0 0 221 250;" xml:space="preserve">
<style type="text/css">
	.st0{fill:#C18A62;}
</style>
<g>
	<path class="st0" d="M72.06,51.65c-7.47,2.82-12.82,9.99-12.82,18.43c0,3.25,0.87,6.28,2.26,8.99
		c-5.93,2.28-10.17,7.99-10.17,14.71c0,6.72,4.24,12.44,10.17,14.72c-1.4,2.71-2.26,5.74-2.26,8.99c0,8.45,5.35,15.61,12.82,18.43
		c-0.59,1.65-0.97,3.41-0.97,5.27c0,8.71,7.09,15.8,15.8,15.8c1.97,0,3.83-0.41,5.57-1.06c2.79,5.76,8.92,9.62,15.9,8.87
		c8.07-0.86,14.08-7.89,14.08-16V38.77c0-8.12-6.01-15.14-14.08-16c-6.98-0.75-13.11,3.11-15.9,8.87c-1.74-0.66-3.6-1.06-5.57-1.06
		c-8.71,0-15.8,7.09-15.8,15.8C71.09,48.24,71.47,49.99,72.06,51.65z M86.51,38.64c4.53-0.21,8.28,3.41,8.28,7.89h7.9
		c0-3.8-1.4-7.24-3.64-9.97c1.01-3.68,4.59-6.33,8.7-5.76c3.93,0.54,6.79,4.04,6.79,8.01v110.25c0,3.97-2.86,7.46-6.79,8
		c-4.12,0.57-7.7-2.07-8.7-5.76c2.24-2.73,3.64-6.17,3.64-9.97h-7.9c0,4.48-3.75,8.1-8.28,7.89c-4.02-0.19-7.33-3.5-7.51-7.51
		c-0.21-4.53,3.41-8.28,7.89-8.28v-7.9c-3.85,0-7.33,1.44-10.07,3.73c-5.89-1.1-10.27-6.54-9.61-12.88c0.58-5.69,5.3-10.21,11-10.58
		c6.89-0.45,12.63,5.03,12.63,11.83h7.9c0-10.89-8.86-19.75-19.75-19.75c-4.46,0-8.54,1.55-11.85,4.05v-0.1
		c-4.36,0-7.9-3.54-7.9-7.9s3.54-7.9,7.9-7.9v-0.1c3.31,2.51,7.39,4.05,11.85,4.05c10.89,0,19.75-8.86,19.75-19.75h-7.9
		c0,6.79-5.74,12.27-12.63,11.83c-5.71-0.37-10.42-4.88-11.01-10.57c-0.66-6.34,3.72-11.79,9.61-12.89
		c2.74,2.29,6.22,3.73,10.07,3.73v-7.9c-4.48,0-8.1-3.75-7.89-8.28C79.19,42.13,82.49,38.83,86.51,38.64z"/>
	<path class="st0" d="M165.9,30.58c-1.97,0-3.83,0.41-5.57,1.06c-2.79-5.76-8.93-9.62-15.9-8.87c-8.07,0.86-14.08,7.89-14.08,16
		v110.02c0,8.12,6.01,15.14,14.08,16c6.98,0.75,13.11-3.11,15.9-8.87c1.74,0.66,3.6,1.06,5.57,1.06c8.71,0,15.8-7.09,15.8-15.8
		c0-1.86-0.38-3.61-0.97-5.27c7.47-2.82,12.82-9.99,12.82-18.43c0-3.25-0.86-6.28-2.26-8.99c5.93-2.28,10.16-7.99,10.16-14.72
		c0-6.72-4.24-12.44-10.16-14.71c1.4-2.71,2.26-5.74,2.26-8.99c0-8.44-5.35-15.61-12.82-18.43c0.59-1.65,0.97-3.41,0.97-5.27
		C181.7,37.67,174.61,30.58,165.9,30.58z M185.59,71.49c-0.59,5.69-5.3,10.2-11,10.57c-6.89,0.45-12.63-5.03-12.63-11.83h-7.9
		c0,10.89,8.86,19.75,19.75,19.75c4.46,0,8.54-1.54,11.85-4.05v0.1c4.36,0,7.9,3.54,7.9,7.9s-3.54,7.9-7.9,7.9v0.1
		c-3.31-2.51-7.39-4.05-11.85-4.05c-10.89,0-19.75,8.86-19.75,19.75h7.9c0-6.79,5.75-12.28,12.64-11.83
		c5.71,0.37,10.41,4.9,11,10.58c0.65,6.33-3.73,11.78-9.61,12.87c-2.74-2.29-6.23-3.73-10.07-3.73v7.9c4.48,0,8.1,3.75,7.89,8.28
		c-0.19,4.02-3.5,7.33-7.51,7.51c-4.53,0.21-8.28-3.41-8.28-7.89h-7.9c0,3.8,1.4,7.24,3.64,9.97c-1.01,3.69-4.59,6.33-8.7,5.76
		c-3.93-0.54-6.79-4.03-6.79-8V38.81c0-3.97,2.86-7.46,6.79-8.01c4.12-0.57,7.7,2.07,8.7,5.76c-2.24,2.73-3.64,6.17-3.64,9.97h7.9
		c0-4.48,3.75-8.1,8.28-7.89c4.02,0.19,7.33,3.5,7.51,7.51c0.21,4.53-3.41,8.28-7.89,8.28v7.9c3.85,0,7.33-1.44,10.07-3.73
		C181.86,59.7,186.24,65.15,185.59,71.49z"/>
	<path class="st0" d="M188.6,27.71c-18.46-17.35-42.64-26.05-68.01-24.45l0.49,7.88c23.18-1.44,45.25,6.49,62.11,22.32
		c16.87,15.85,26.16,37.33,26.16,60.47c0,27.88-13.9,53.74-37.18,69.16c-8.03,5.32-14.11,12.92-17.85,21.69H98.3
		c-3.8-8.84-9.9-16.49-17.94-21.86c-23.99-16.03-37.78-42.81-36.88-71.64l-7.9-0.24c-0.98,31.57,14.12,60.9,40.39,78.46
		c5.8,3.88,10.44,9.16,13.66,15.29H78.99v7.9h13.8c0.77,2.56,1.38,5.18,1.69,7.9h-7.59v7.9h7.9v11.85c0,2.19,1.77,3.95,3.95,3.95
		h3.95c0,13.07,10.63,23.7,23.7,23.7s23.7-10.63,23.7-23.7h3.95c2.18,0,3.95-1.77,3.95-3.95V208.5h7.9v-7.9h-7.62
		c0.28-2.71,0.84-5.34,1.59-7.9h13.94v-7.9h-10.82c3.18-6.07,7.79-11.28,13.56-15.11c25.49-16.9,40.71-45.22,40.71-75.75
		C217.25,68.96,206.81,44.82,188.6,27.71z M126.25,240.1c-8.71,0-15.8-7.09-15.8-15.8h31.6C142.05,233.01,134.96,240.1,126.25,240.1
		z M150.1,216.4h-47.4v-7.9h47.4V216.4z M150.23,200.6h-48c-0.26-2.69-0.69-5.33-1.34-7.9h50.57
		C150.83,195.26,150.47,197.91,150.23,200.6z"/>
	<path class="st0" d="M31.44,30.58c8.71,0,15.8,7.09,15.8,15.8c0,2.19,1.77,3.95,3.95,3.95c2.18,0,3.95-1.76,3.95-3.95
		c0-8.71,7.09-15.8,15.8-15.8c2.18,0,3.95-1.76,3.95-3.95c0-2.18-1.77-3.95-3.95-3.95c-8.71,0-15.8-7.09-15.8-15.8
		c0-2.18-1.77-3.95-3.95-3.95c-2.18,0-3.95,1.77-3.95,3.95c0,8.71-7.09,15.8-15.8,15.8c-2.18,0-3.95,1.77-3.95,3.95
		C27.49,28.81,29.26,30.58,31.44,30.58z M51.19,19.96c1.76,2.64,4.03,4.91,6.66,6.66c-2.64,1.76-4.91,4.03-6.66,6.66
		c-1.75-2.64-4.03-4.91-6.66-6.66C47.17,24.87,49.44,22.6,51.19,19.96z"/>
	<path class="st0" d="M47.24,70.08c2.18,0,3.95-1.76,3.95-3.95c0-2.18-1.77-3.95-3.95-3.95c-8.71,0-15.8-7.09-15.8-15.8
		c0-2.18-1.77-3.95-3.95-3.95c-2.18,0-3.95,1.77-3.95,3.95c0,8.71-7.09,15.8-15.8,15.8c-2.18,0-3.95,1.77-3.95,3.95
		c0,2.19,1.77,3.95,3.95,3.95c8.71,0,15.8,7.09,15.8,15.8c0,2.19,1.77,3.95,3.95,3.95c2.18,0,3.95-1.76,3.95-3.95
		C31.44,77.17,38.53,70.08,47.24,70.08z M27.49,72.79c-1.75-2.64-4.03-4.91-6.66-6.66c2.64-1.75,4.91-4.03,6.66-6.66
		c1.76,2.64,4.03,4.91,6.66,6.66C31.52,67.89,29.25,70.16,27.49,72.79z"/>
</g>
</svg>
