<?xml version="1.0" encoding="utf-8"?>
<!-- Generator: Adobe Illustrator 23.0.1, SVG Export Plug-In . SVG Version: 6.00 Build 0)  -->
<svg version="1.1" id="Calque_1" xmlns="http://www.w3.org/2000/svg" xmlns:xlink="http://www.w3.org/1999/xlink" x="0px" y="0px"
	 viewBox="0 0 221 223" style="enable-background:new 0 0 221 223;" xml:space="preserve">
<style type="text/css">
	.st0{fill:#C18A62;}
</style>
<g>
	<g>
		<path class="st0" d="M110,6C52.01,6,5,53.01,5,111c0,57.99,47.01,105,105,105s105-47.02,105-105C215,53.01,167.99,6,110,6z
			 M165.45,159.21l-8.41,8.41c-1.5,1.5-5.9,2.43-6.04,2.43c-26.6,0.23-52.21-10.21-71.02-29.03
			c-18.87-18.88-29.33-44.58-29.05-71.26c0-0.01,0.96-4.28,2.46-5.77l8.41-8.41c3.08-3.09,8.99-4.49,13.13-3.1l1.77,0.59
			c4.13,1.38,8.46,5.95,9.6,10.15l4.23,15.52c1.14,4.22-0.4,10.22-3.47,13.29l-5.61,5.61c5.51,20.4,21.52,36.42,41.93,41.94
			l5.61-5.62c3.09-3.09,9.09-4.63,13.3-3.49l15.52,4.24c4.21,1.16,8.77,5.46,10.15,9.59l0.59,1.79
			C169.91,150.24,168.52,156.14,165.45,159.21z"/>
	</g>
</g>
</svg>
