<?xml version="1.0" encoding="utf-8"?>
<!-- Generator: Adobe Illustrator 23.0.1, SVG Export Plug-In . SVG Version: 6.00 Build 0)  -->
<svg version="1.1" id="Calque_1" xmlns="http://www.w3.org/2000/svg" xmlns:xlink="http://www.w3.org/1999/xlink" x="0px" y="0px"
	 viewBox="0 0 221 223" style="enable-background:new 0 0 221 223;" xml:space="preserve">
<style type="text/css">
	.st0{fill:#C18A62;}
</style>
<g>
	<path class="st0" d="M173.53,104.65c0.95,0,1.86-0.38,2.53-1.05l7.59-7.59c1.35-1.4,1.34-3.64-0.04-5.02
		c-1.38-1.38-3.61-1.4-5.01-0.04L171,98.54c-1.02,1.02-1.33,2.56-0.77,3.9C170.78,103.78,172.08,104.65,173.53,104.65z"/>
	<path class="st0" d="M120.41,46.47c0.95,0,1.86-0.38,2.53-1.05l5.06-5.06c0.93-0.9,1.3-2.23,0.97-3.48
		c-0.33-1.25-1.3-2.23-2.55-2.55s-2.58,0.05-3.48,0.98l-5.06,5.06c-1.02,1.02-1.33,2.56-0.77,3.9
		C117.66,45.6,118.97,46.47,120.41,46.47z"/>
	<path class="st0" d="M8.9,209.98c4.45,4.43,10.48,6.92,16.77,6.93h1.11c6.54-0.22,12.69-3.14,17.01-8.06l54.2-61.94l27.65,27.65
		c4.2,4.18,10.99,4.18,15.18,0l5.06-5.06c4.15-4.13,4.2-10.82,0.13-15.03l69.15-61.99c1.09-0.95,1.76-2.3,1.84-3.75
		c0.08-1.45-0.42-2.86-1.4-3.93l-10.73-13.2c-0.08-0.09-0.16-0.18-0.25-0.27c-1.01-1-2.37-1.57-3.79-1.57H195V63.9
		c0-1.42-0.56-2.79-1.57-3.8l-8.83-8.82c-1.44-1.45-3.58-1.95-5.51-1.3l-7.36,2.45l2.45-7.35c0.65-1.93,0.15-4.06-1.3-5.5
		l-21.51-21.48c-1.01-1-2.37-1.57-3.8-1.57h-5.81v-5.79c0-1.42-0.56-2.79-1.57-3.79c-0.23-0.23-0.48-0.42-0.76-0.58l-5.41-3.08
		c-1.01-0.79-2.26-1.2-3.54-1.17c-1.47,0.05-2.86,0.69-3.84,1.79L64.5,73.16c-4.27-3.93-10.86-3.88-15.06,0.12l-5.07,5.06
		c-2.83,2.83-3.92,7.07-2.58,11.06c0.54,1.6,1.49,3.03,2.68,4.23l27.61,27.57l-62.05,54.22c-4.94,4.31-7.86,10.47-8.08,17.02
		c-0.22,6.54,2.29,12.89,6.93,17.52L8.9,209.98z M131.05,9.75l3.58,2.05v6.49c0,2.96,2.4,5.37,5.37,5.37h6.87l9.08,9.09
		l-12.66,12.67c-0.93,0.9-1.31,2.23-0.98,3.49c0.33,1.25,1.31,2.23,2.56,2.56c1.25,0.33,2.59-0.05,3.49-0.98l12.67-12.67l6.04,6.03
		l-3.23,9.71c-0.65,1.94-0.15,4.07,1.29,5.51c1.44,1.44,3.58,1.95,5.51,1.29l9.7-3.22l7.52,7.52v6.87c0,2.96,2.4,5.37,5.37,5.37
		h6.75l9.24,11.34l-68.34,61.2l-5.2-5.2l15.21-15.2c1.36-1.41,1.34-3.64-0.04-5.02c-1.38-1.38-3.62-1.4-5.02-0.04l-15.21,15.2
		l-7.6-7.6l25.34-25.34c1.36-1.41,1.34-3.64-0.04-5.02c-1.38-1.38-3.62-1.4-5.02-0.04l-25.34,25.34l-7.6-7.62l40.55-40.52
		c1.36-1.41,1.34-3.64-0.04-5.02c-1.38-1.38-3.62-1.4-5.02-0.04l-40.54,40.54L95.14,103.7l35.48-35.48
		c1.36-1.41,1.34-3.64-0.04-5.02c-1.38-1.38-3.62-1.4-5.02-0.04L90.07,98.63L79.94,88.49l25.34-25.34c1-0.88,1.43-2.24,1.11-3.54
		c-0.32-1.29-1.33-2.31-2.62-2.63c-1.29-0.32-2.66,0.1-3.54,1.1L74.89,83.42l-5.2-5.2L131.05,9.75z M49.69,83.35l5.06-5.06
		c1.41-1.35,3.64-1.35,5.06,0l80.94,80.94c1.4,1.4,1.4,3.66,0,5.05l-5.06,5.06c-0.67,0.67-1.58,1.05-2.53,1.05s-1.86-0.38-2.53-1.05
		L100.3,139l-10.1-10.1v-0.02h-0.02l-10.13-10.14L49.69,88.39C48.3,87,48.3,84.74,49.69,83.35z M14.97,180.86l62.28-54.5l5.22,5.22
		l-22.01,22.01c-0.93,0.9-1.3,2.23-0.98,3.48s1.31,2.23,2.55,2.55c1.25,0.33,2.58-0.05,3.48-0.97l22.01-22.01l5.22,5.22l-54.5,62.28
		c-3.01,3.43-7.3,5.47-11.86,5.62c-4.56,0.15-8.98-1.59-12.21-4.82l-2.53,2.53l2.5-2.55c-3.23-3.23-4.97-7.65-4.82-12.21
		C9.49,188.16,11.53,183.87,14.97,180.86L14.97,180.86z"/>
	<path class="st0" d="M26.83,202.86c2.84,0.01,5.58-1.12,7.59-3.14c3.62-3.62,4.19-9.29,1.34-13.55c-2.84-4.26-8.3-5.92-13.03-3.96
		c-4.73,1.96-7.42,6.98-6.43,12.01C17.3,199.23,21.71,202.85,26.83,202.86z M24.38,189.62c1.27-1.27,3.34-1.44,4.83-0.22
		c0.49,0.4,0.86,0.93,1.07,1.53c0.65,1.89-0.3,3.82-2,4.52c-1.34,0.55-2.88,0.25-3.9-0.77c-0.68-0.67-1.07-1.58-1.07-2.54
		c0-0.95,0.38-1.87,1.07-2.54V189.62z"/>
</g>
</svg>
