<?xml version="1.0" encoding="utf-8"?>
<!-- Generator: Adobe Illustrator 23.0.1, SVG Export Plug-In . SVG Version: 6.00 Build 0)  -->
<svg version="1.1" id="Calque_1" xmlns="http://www.w3.org/2000/svg" xmlns:xlink="http://www.w3.org/1999/xlink" x="0px" y="0px"
	 viewBox="0 0 250 250" style="enable-background:new 0 0 250 250;" xml:space="preserve">
<style type="text/css">
	.st0{fill:#C18A62;}
</style>
<g>
	<path class="st0" d="M57.59,18.89C66.4,12.11,76.96,8.53,88.12,8.53h120.25c1.82,0,3.3,1.48,3.3,3.3v75.5
		c0,0.06,0.02,0.12,0.07,0.17c3.16,3.51,7.13,1.32,7.13-1.8V5.11c0-2.08-1.69-3.77-3.77-3.77H88.12c-12.75,0-24.83,4.1-34.92,11.85
		c-1.58,1.21-1.87,3.47-0.66,5.05C53.75,19.81,56.01,20.1,57.59,18.89z"/>
	<path class="st0" d="M247.93,127.12c-0.89-12.08-10.49-21.66-22.51-23.14c-2.41-0.3-4.77-0.27-7.04,0.05v-3.04
		c0-1.61-1.05-3.1-2.63-3.46c-2.17-0.49-4.09,1.27-4.09,3.52v5.15c-7.94,4.05-13.43,12.73-13.43,22.76c0,3.58,0.7,6.99,1.96,10.08
		H50.27c1.35-3.09,2.1-6.5,2.1-10.08c0-10.03-5.89-18.71-14.39-22.76V58.67c0-10.71,3.33-20.93,9.62-29.55
		c1.17-1.6,0.82-3.86-0.78-5.03c-1.61-1.17-3.86-0.82-5.03,0.78c-7.2,9.86-11.01,21.55-11.01,33.79v45.36
		c-2.26-0.32-4.62-0.35-7.04-0.05c-12.02,1.49-21.62,11.06-22.51,23.14c-0.98,13.37,8.84,24.76,21.83,26.73
		c-0.61,1.95-0.92,3.99-0.92,6.06v36.33c0,8.16,6.61,14.77,14.77,14.77h11.14v17.67c0,9.54,7.3,17.68,16.83,18.28
		c10.45,0.66,19.16-7.65,19.16-17.96v-17.99h81.57v17.67c0,9.54,7.3,17.68,16.83,18.28c10.45,0.66,19.16-7.65,19.16-17.96v-17.99
		h10.66c8.16,0,14.77-6.61,14.77-14.77v-36.28c0-2.09-0.32-4.15-0.93-6.11C239.09,151.89,248.92,140.5,247.93,127.12z M8.95,129.07
		c0-9.92,8.07-17.99,17.99-17.99c2.09,0,4.09,0.36,5.95,1.01c0.02,0.01,0.04,0.01,0.06,0.02c6.97,2.48,11.98,9.14,11.98,16.96
		c0,9.92-8.07,17.99-17.99,17.99S8.95,139,8.95,129.07z M76.84,229.01c0,6.29-5.4,11.33-11.8,10.75c-5.6-0.51-9.79-5.38-9.79-11
		l0-17.74h21.59V229.01z M194.4,229.01c0,6.29-5.4,11.33-11.8,10.75c-5.6-0.51-9.79-5.38-9.79-11v-17.74h21.59V229.01z
		 M212.26,203.82H36.91c-4.18,0-7.57-3.39-7.57-7.57v-23.62H47.7c1.7,0,3.26-1.13,3.62-2.8c0.5-2.33-1.26-4.4-3.51-4.4H29.34v-5.52
		c0-2.11,0.48-4.18,1.41-6.04c5.68-0.86,10.74-3.63,14.51-7.63h158.65c3.77,3.99,8.82,6.76,14.49,7.63c0.94,1.88,1.43,3.96,1.43,6.1
		v5.47H63.31c-1.7,0-3.26,1.13-3.62,2.8c-0.5,2.33,1.26,4.4,3.51,4.4h156.62v23.62C219.83,200.43,216.44,203.82,212.26,203.82z
		 M222.23,147.07c-9.92,0-17.99-8.07-17.99-17.99c0-7.81,5.01-14.48,11.98-16.96c0.02-0.01,0.04-0.01,0.06-0.02
		c1.86-0.66,3.87-1.01,5.95-1.01c9.92,0,17.99,8.07,17.99,17.99S232.15,147.07,222.23,147.07z"/>
	<path class="st0" d="M83.45,40.2H81.3c-1.14-3.46-3.88-6.2-7.34-7.34v-2.15c0-1.7-1.13-3.26-2.8-3.62c-2.33-0.5-4.4,1.26-4.4,3.51
		v2.25c-3.46,1.14-6.2,3.88-7.34,7.34h-2.15c-1.7,0-3.26,1.13-3.62,2.8c-0.5,2.33,1.26,4.4,3.51,4.4h2.25
		c1.14,3.46,3.88,6.2,7.34,7.34v2.15c0,1.7,1.13,3.26,2.8,3.62c2.33,0.5,4.4-1.26,4.4-3.51v-2.25c3.46-1.14,6.2-3.88,7.34-7.34h2.25
		c2.25,0,4.02-2.06,3.51-4.4C86.71,41.33,85.15,40.2,83.45,40.2z M70.37,47.98c-2.38,0-4.32-1.94-4.32-4.32s1.94-4.32,4.32-4.32
		s4.32,1.94,4.32,4.32S72.75,47.98,70.37,47.98z"/>
	<path class="st0" d="M191.89,40.2h-2.15c-1.14-3.46-3.88-6.2-7.34-7.34v-2.15c0-1.7-1.13-3.26-2.8-3.62
		c-2.33-0.5-4.4,1.26-4.4,3.51v2.25c-3.46,1.14-6.2,3.88-7.34,7.34h-2.15c-1.7,0-3.26,1.13-3.62,2.8c-0.5,2.33,1.26,4.4,3.51,4.4
		h2.25c1.14,3.46,3.88,6.2,7.34,7.34v2.15c0,1.7,1.13,3.26,2.8,3.62c2.33,0.5,4.4-1.26,4.4-3.51v-2.25c3.46-1.14,6.2-3.88,7.34-7.34
		H192c2.25,0,4.02-2.06,3.51-4.4C195.15,41.33,193.59,40.2,191.89,40.2z M178.81,47.98c-2.38,0-4.32-1.94-4.32-4.32
		s1.94-4.32,4.32-4.32c2.38,0,4.32,1.94,4.32,4.32S181.19,47.98,178.81,47.98z"/>
	<path class="st0" d="M137.67,40.2h-2.15c-1.14-3.46-3.88-6.2-7.34-7.34v-2.15c0-1.7-1.13-3.26-2.8-3.62
		c-2.33-0.5-4.4,1.26-4.4,3.51v2.25c-3.46,1.14-6.2,3.88-7.34,7.34h-2.15c-1.7,0-3.26,1.13-3.62,2.8c-0.5,2.33,1.26,4.4,3.51,4.4
		h2.25c1.14,3.46,3.88,6.2,7.34,7.34v2.15c0,1.7,1.13,3.26,2.8,3.62c2.33,0.5,4.4-1.26,4.4-3.51v-2.25c3.46-1.14,6.2-3.88,7.34-7.34
		h2.25c2.25,0,4.02-2.06,3.51-4.4C140.93,41.33,139.37,40.2,137.67,40.2z M124.59,47.98c-2.38,0-4.32-1.94-4.32-4.32
		s1.94-4.32,4.32-4.32s4.32,1.94,4.32,4.32S126.97,47.98,124.59,47.98z"/>
	<path class="st0" d="M73.96,113.5v-2.15c3.46-1.14,6.2-3.88,7.34-7.34h2.15c1.7,0,3.26-1.13,3.62-2.8c0.5-2.33-1.26-4.4-3.51-4.4
		H81.3c-1.14-3.46-3.88-6.2-7.34-7.34v-2.15c0-1.7-1.13-3.26-2.8-3.62c-2.33-0.5-4.4,1.26-4.4,3.51v2.25
		c-3.46,1.14-6.2,3.88-7.34,7.34h-2.15c-1.7,0-3.26,1.13-3.62,2.8c-0.5,2.33,1.26,4.4,3.51,4.4h2.25c1.14,3.46,3.88,6.2,7.34,7.34
		v2.25c0,2.25,2.06,4.02,4.4,3.51C72.83,116.76,73.96,115.21,73.96,113.5z M70.37,96.21c2.38,0,4.32,1.94,4.32,4.32
		s-1.94,4.32-4.32,4.32s-4.32-1.94-4.32-4.32S67.99,96.21,70.37,96.21z"/>
	<path class="st0" d="M182.4,113.5v-2.15c3.46-1.14,6.2-3.88,7.34-7.34h2.15c1.7,0,3.26-1.13,3.62-2.8c0.5-2.33-1.26-4.4-3.51-4.4
		h-2.25c-1.14-3.46-3.88-6.2-7.34-7.34v-2.15c0-1.7-1.13-3.26-2.8-3.62c-2.33-0.5-4.4,1.26-4.4,3.51v2.25
		c-3.46,1.14-6.2,3.88-7.34,7.34h-2.15c-1.7,0-3.26,1.13-3.62,2.8c-0.5,2.33,1.26,4.4,3.51,4.4h2.25c1.14,3.46,3.88,6.2,7.34,7.34
		v2.25c0,2.25,2.06,4.02,4.4,3.51C181.27,116.76,182.4,115.21,182.4,113.5z M178.81,96.21c2.38,0,4.32,1.94,4.32,4.32
		s-1.94,4.32-4.32,4.32c-2.38,0-4.32-1.94-4.32-4.32S176.43,96.21,178.81,96.21z"/>
	<path class="st0" d="M128.18,113.5v-2.15c3.46-1.14,6.2-3.88,7.34-7.34h2.15c1.7,0,3.26-1.13,3.62-2.8c0.5-2.33-1.26-4.4-3.51-4.4
		h-2.25c-1.14-3.46-3.88-6.2-7.34-7.34v-2.15c0-1.7-1.13-3.26-2.8-3.62c-2.33-0.5-4.4,1.26-4.4,3.51v2.25
		c-3.46,1.14-6.2,3.88-7.34,7.34h-2.15c-1.7,0-3.26,1.13-3.62,2.8c-0.5,2.33,1.26,4.4,3.51,4.4h2.25c1.14,3.46,3.88,6.2,7.34,7.34
		v2.25c0,2.25,2.06,4.02,4.4,3.51C127.05,116.76,128.18,115.21,128.18,113.5z M124.59,96.21c2.38,0,4.32,1.94,4.32,4.32
		s-1.94,4.32-4.32,4.32s-4.32-1.94-4.32-4.32S122.21,96.21,124.59,96.21z"/>
</g>
</svg>
